# xmcd
#
# Track frame offsets: 
#        182
#        15630
#        31317
#        37940
#        52352
#        68612
#        81332
#        95115
#        110155
#        121847
#        138647
#        147442
#        159030
#        175920
#        189935
#
# Disc length: 2737 seconds
#
# Revision: 5
# Processed by: cddbd v1.5.1PL2 Copyright (c) Steve Scherf et al.
# Submitted via: ExactAudioCopy v0.90b4
#
DISCID=ce0aaf0f
DTITLE=Various Artist - Anos Rebeldes (OST)
DYEAR=1992
DGENRE=Soundtrack
TTITLE0=Gal Costa and Caetano Veloso - Baby
TTITLE1=Gino Paoli - Sapore Di Sale
TTITLE2=Toquinho and Vinícius - Carta Ao Tom
TTITLE3=Frankie Valli and The Four Seasons - Can't Take My Eyes Off You
TTITLE4=Emílio Santiago - Mascarada
TTITLE5=Caetano Veloso - Alegria, Alegria
TTITLE6=Sérgio Mendes - Going Out Of My Head
TTITLE7=The Mamas and The Papas - Monday Monday
TTITLE8=Herman's Hermits - There's A Kind Of Hush
TTITLE9=Caetano Veloso - Soy Loco Por Ti America
TTITLE10=Silvinha Telles - Discussão
TTITLE11=Chris Montez - Call Me
TTITLE12=Ornella Vanoni - Senza Fine
TTITLE13=Edom and Felipe - Guatanamera
TTITLE14=Edom and Felipe - The House Of Rising Sun
EXTD=
EXTT0=
EXTT1=
EXTT2=
EXTT3=
EXTT4=
EXTT5=
EXTT6=
EXTT7=
EXTT8=
EXTT9=
EXTT10=
EXTT11=
EXTT12=
EXTT13=
EXTT14=
PLAYORDER=
